PathFileType	4	(X/Y/Z)	/Users/visionmauri/Downloads/Videos/OAW09-top_Sports2D/OAW09-top_Sports2D_px_person00.trc
DataRate	CameraRate	NumFrames	NumMarkers	Units	OrigDataRate	OrigDataStartFrame	OrigNumFrames
30.0	30.0	12	22	m	30.0	1032	2065
Frame#	Time	Hip			RHip			RKnee			RAnkle			RBigToe			RSmallToe			RHeel			LHip			LKnee			LAnkle			LBigToe			LSmallToe			LHeel			Neck			Head			Nose			RShoulder			RElbow			RWrist			LShoulder			LElbow			LWrist			
		X1	Y1	Z1	X2	Y2	Z2	X3	Y3	Z3	X4	Y4	Z4	X5	Y5	Z5	X6	Y6	Z6	X7	Y7	Z7	X8	Y8	Z8	X9	Y9	Z9	X10	Y10	Z10	X11	Y11	Z11	X12	Y12	Z12	X13	Y13	Z13	X14	Y14	Z14	X15	Y15	Z15	X16	Y16	Z16	X17	Y17	Z17	X18	Y18	Z18	X19	Y19	Z19	X20	Y20	Z20	X21	Y21	Z21	X22	Y22	Z22
1032	34.416666666666664	533.9063255332725	788.5156628824877	0.0	504.2831235767598	790.4202150202194	0.0	508.6907120160104	903.7368101174851	0.0	516.2743963005138	1016.7951533521448	0.0	512.4364444395029	1058.3303636910005	0.0	495.928446442723	1052.521368335319	0.0	520.156452665405	1030.2469758799884	0.0	563.0728486550527	789.389287664647	0.0	558.8908164323483	899.4159770617656	0.0	544.0957368668141	959.9508602562652	0.0	545.2526423289152	1002.6855963779724	0.0	557.7825347731247	993.5470381819314	0.0	539.7527719025236	963.4982651806889	0.0	530.0427880160471	647.9306333566141	0.0	523.2998991102081	574.4706039222245	0.0	532.4882511614499	649.1802634716068	0.0	470.9920951804566	648.9297047386214	0.0	453.766952666755	736.6840024591452	0.0	455.1327980425333	809.3723198312472	0.0	591.0020075609945	643.9814949901639	0.0	613.3031958096284	716.5502311579588	0.0	622.2950467745303	784.275629140587	0.0
1033	34.4500161498708	533.7868422210147	790.2716703411311	0.0	504.1351882043419	793.2265439030954	0.0	508.1585023588231	906.4793658688734	0.0	515.833096518309	1016.5462753478223	0.0	513.0660508681559	1058.2096148552757	0.0	496.22172502406903	1053.1166333025067	0.0	520.9949414815773	1029.8563354543999	0.0	563.5593863462178	791.3479582007351	0.0	562.209864999969	903.9410022465113	0.0	546.0247466329112	958.7989116443737	0.0	547.1870281750296	1004.2600385740519	0.0	560.2642747995807	995.3658623495243	0.0	541.1430796611006	962.5870706623385	0.0	529.3621771846281	648.0732979529805	0.0	525.0341925435075	574.0808786280254	0.0	532.8245881949044	649.0635083551886	0.0	470.8657467030182	649.6141934575064	0.0	452.71224235318726	738.9931882871986	0.0	453.4299635590034	812.2596085785239	0.0	590.4542905720926	643.722142740074	0.0	611.9562116690897	718.8612393910547	0.0	620.1971866954758	787.8979015851705	0.0
1034	34.48336563307493	533.4076877824536	791.7294362181234	0.0	503.84886817238686	795.5545174035227	0.0	507.6874165632124	908.7109173803752	0.0	515.1412883757555	1016.4451938016891	0.0	513.6494584863641	1058.0423381946835	0.0	495.99077020145154	1053.2132470245015	0.0	521.4452112183227	1029.6443886438026	0.0	563.9930204274594	792.9442290064076	0.0	564.4825445907253	906.5167018632864	0.0	548.1249331314722	959.0555309518809	0.0	549.0749882039273	1006.5129692735759	0.0	563.2481642996115	997.6573005555207	0.0	542.9897595361431	963.2470502560011	0.0	528.9764927011821	648.4334964970669	0.0	528.261599715407	574.0278674900829	0.0	533.8039522882154	648.959823038	0.0	470.5893257123573	650.2998883278739	0.0	451.1969476077104	740.5132713335461	0.0	451.84971399037613	814.4874755491695	0.0	589.7908249771737	643.8099865277138	0.0	610.8506170447586	722.0030120049795	0.0	617.8683527816468	791.918305190876	0.0
1035	34.516715116279066	532.7821808503656	792.5713531795988	0.0	503.1521135121521	796.7193262435266	0.0	507.37913975417416	910.8994576020033	0.0	514.595502617029	1016.865543055714	0.0	514.4839299500036	1057.8852658038209	0.0	495.67789151460295	1053.0342025893735	0.0	521.8144191996286	1029.8167815380407	0.0	563.8666850344634	793.7097088960679	0.0	565.1539484276956	908.4773497421065	0.0	549.8936471513078	962.064872833995	0.0	550.9086741706893	1010.0759846100208	0.0	565.9005685474394	1001.1113102164103	0.0	545.0938861355304	965.5949720778991	0.0	528.6860563603112	649.1189000631159	0.0	531.8935729513414	573.9262539078657	0.0	535.2304559073642	648.4588388372457	0.0	469.6525901042886	650.8600474924532	0.0	449.2195984737035	741.6545265658685	0.0	450.1495886261679	816.4576278083329	0.0	589.5507529761968	644.4476054468656	0.0	609.8033710690322	725.8181330203539	0.0	614.870671393791	796.3649191559971	0.0
1036	34.5500645994832	532.0866700789637	794.136217460072	0.0	501.97124585730035	798.4910587817255	0.0	507.39737443283946	913.4484114637305	0.0	514.6589551953924	1017.5942992894828	0.0	515.1280432237007	1058.2148801925648	0.0	495.78359850532445	1053.3964593707885	0.0	522.0242389517456	1030.2469174065466	0.0	563.289290891728	795.4897717650026	0.0	564.0789569392864	911.4163609503322	0.0	551.19816441802	969.1175756438921	0.0	551.7607544225195	1017.8230589857939	0.0	567.2562323763743	1009.0027358364321	0.0	547.1689387632535	972.0782443205005	0.0	528.2910668225744	649.5344782405618	0.0	534.5245474762538	573.633934824006	0.0	536.4401499202968	647.6510558014585	0.0	468.55736121540934	651.5455747247337	0.0	447.05537210478286	742.6973946710502	0.0	448.3783609630965	818.4253646451465	0.0	589.7446274318891	645.4369915275075	0.0	608.615922113402	729.4908388171376	0.0	611.3024676952186	800.980060741728	0.0
1037	34.583414082687334	531.5298013211506	796.8977986692569	0.0	500.72658786278447	801.5825044388799	0.0	507.51059923753974	915.8492136479891	0.0	515.2484191379791	1018.1543394696922	0.0	515.1881471695984	1059.4152415106328	0.0	496.2466561994948	1054.6178519982113	0.0	522.0911503096874	1030.9418293679619	0.0	562.7070764541719	798.9782145406757	0.0	561.7292611358495	915.1249304973228	0.0	552.1720842117747	981.2290116016377	0.0	551.1666784032957	1031.103916908348	0.0	567.3313257824427	1023.2940543055352	0.0	548.9014676346668	985.9222219140263	0.0	527.8990016301743	649.5901680189357	0.0	535.8300811807612	573.3249875860597	0.0	537.0483126070668	647.2592269888937	0.0	467.928476165985	652.247653798431	0.0	445.0449777481558	743.1300659545298	0.0	447.01331315244056	819.8536764620287	0.0	590.0226338107249	646.4717467032044	0.0	607.3032254361863	732.4097536833839	0.0	607.89855732445	805.1982883434216	0.0
1038	34.61676356589147	531.0926133561098	799.8562625065462	0.0	499.87467387882555	804.5250007531279	0.0	507.38553017341997	917.7701536351402	0.0	515.8362119572577	1018.5135659668452	0.0	514.6979281996969	1060.8901407090727	0.0	496.616695939997	1056.0080421301827	0.0	522.3826419069921	1031.9100416757776	0.0	562.3449034485467	802.6359211406439	0.0	559.0037581774437	918.787431041448	0.0	552.6487301487283	998.2756027746419	0.0	549.5329072874837	1047.8125253123249	0.0	566.9800314460955	1041.8971833157277	0.0	549.8044261696436	1006.8167401953266	0.0	527.7929781387804	650.2949069022146	0.0	536.5902709570214	573.1766040300038	0.0	537.1669758626581	648.0029775647434	0.0	467.5646074313848	652.7633696622261	0.0	443.28820776296624	742.6379440209992	0.0	446.3188874957776	820.3670069642383	0.0	590.2962438595717	647.7531244139764	0.0	606.1164435919338	734.7476405458495	0.0	605.3333184256378	808.5636541857962	0.0
1039	34.6501130490956	530.6141620791051	802.6563510661206	0.0	499.39913930859353	806.8465286910152	0.0	507.07935861651305	919.6134092138489	0.0	516.1245005545196	1018.890303030383	0.0	513.7547828156412	1061.7406494575555	0.0	496.4905548638237	1056.5034028543087	0.0	522.8483254527191	1032.4771292678465	0.0	562.2165398599564	805.8183577157918	0.0	556.7591606256309	922.9231310770284	0.0	552.5569084876469	1017.9987036789853	0.0	547.8579449836209	1065.052823234924	0.0	566.8965238628601	1060.771817264648	0.0	549.668558513566	1030.077024898891	0.0	527.9677858548536	652.1679757002211	0.0	537.4296294624943	573.6229282755941	0.0	537.2018091078922	650.1548421380022	0.0	467.1749419018534	653.671503056232	0.0	441.84748835234205	741.9021184012975	0.0	445.9972572100738	820.6760378404623	0.0	590.726232050681	649.8063944049572	0.0	605.1979348643459	736.7723914798916	0.0	603.7031596131633	810.9423350506286	0.0
1040	34.683462532299735	530.1101976218289	805.7588792455643	0.0	499.0423120701538	809.5378109475288	0.0	506.8793071008904	921.6404661171044	0.0	516.285002590018	1019.2146919933207	0.0	512.7479014658247	1061.8884033489824	0.0	495.9601708608192	1055.6997403879052	0.0	523.057591853403	1031.9635379645279	0.0	562.2414597822724	809.2213286650217	0.0	555.4072243925617	928.4980013124139	0.0	552.240737139951	1036.4907981256813	0.0	547.2651376602861	1080.928779764704	0.0	567.1395110155383	1077.0681262128076	0.0	548.8475852189359	1050.2928597882087	0.0	528.2513477416957	654.1990651266444	0.0	538.3618518533548	575.1431726208633	0.0	537.4467355804723	653.0647055231817	0.0	467.2285056242446	655.5506053730863	0.0	440.8349462935152	741.7931235548438	0.0	445.692886265623	821.562549339306	0.0	591.4132600509806	652.5869075680213	0.0	604.7170630146819	738.2110266685823	0.0	602.776013792161	812.3584420848298	0.0
1041	34.71681201550387	529.7649835892157	809.2885661208246	0.0	498.6585891263004	812.9082002233848	0.0	506.99105941218636	923.8597300576656	0.0	516.4732229484762	1019.4340615842152	0.0	512.3869884507786	1061.7679658757936	0.0	495.68100736813955	1054.4652488085903	0.0	522.8974062670832	1030.7740175891165	0.0	562.2669018144021	812.813701595633	0.0	554.6613401637042	935.0772606140995	0.0	551.9565742354229	1051.0123062289103	0.0	547.5920788254367	1093.7588607155312	0.0	567.3763592162916	1089.640756046566	0.0	547.9901976738581	1065.3138391868895	0.0	528.6650016835766	655.7539471819642	0.0	539.262432480454	577.5712625266252	0.0	537.8851380308836	655.7430026828064	0.0	468.0062790270056	658.037893046691	0.0	440.15501819985644	742.8661778331463	0.0	445.5548976741748	823.124737199823	0.0	592.3697245098497	655.6187956444372	0.0	604.8629877390584	739.4354974244987	0.0	602.3248839162741	813.4452942292194	0.0
1042	34.750161498708	529.681249064613	813.3677142753452	0.0	498.27660717997446	816.7644083620896	0.0	507.3561167588496	926.701307303041	0.0	516.3078414993116	1019.846839781977	0.0	512.6455178684653	1061.622146356715	0.0	495.9169513507549	1053.9833959424768	0.0	522.3347063518269	1029.79483090452	0.0	562.2067179575208	816.397247979187	0.0	553.9131106227376	941.4953534797991	0.0	551.5873085722502	1061.702540995265	0.0	547.3673979921645	1102.7089245198408	0.0	567.1891330891139	1098.5872993215567	0.0	547.4846248540226	1076.3388880524872	0.0	529.3278944487603	658.1367013443501	0.0	540.0060313674479	580.2570757958617	0.0	538.4888297109528	658.3276730497613	0.0	468.81298520295536	661.0111491772104	0.0	439.6268490246397	745.57566521391	0.0	446.0046765724551	825.2581898037945	0.0	593.4731798910943	659.1715003178051	0.0	605.6042964184188	742.3440204834244	0.0	602.1697793493773	816.0677862989829	0.0
1043	34.78351098191214	529.8354713424883	818.1661410331478	0.0	498.0250111165137	821.2769438757051	0.0	507.63232270139133	930.5116867911552	0.0	515.2774664868301	1020.6725310613377	0.0	512.6861509242101	1061.5726129933098	0.0	495.95592826375315	1054.3856260806572	0.0	521.1313730951045	1029.5847971239793	0.0	562.293225999943	820.6564090364152	0.0	553.1033787648681	947.4882089957943	0.0	550.6804124721864	1069.9344850573557	0.0	546.1323905840533	1109.7362369708494	0.0	566.2270824543792	1105.6605034492081	0.0	546.5749033081439	1084.9217147327545	0.0	530.2469581761807	662.1890901709443	0.0	540.4567808584325	582.7672935426698	0.0	539.2967378607685	661.3412542035313	0.0	469.1434045612146	665.168640555788	0.0	439.2292208754242	749.8263780387531	0.0	447.0080476765024	828.0297469289847	0.0	594.4871527371812	663.9491397147107	0.0	606.8544996633226	748.1889722160653	0.0	602.1154637395053	821.5283564889021	0.0
